# xmcd CD database file
#
# Track frame offsets:
#	150
#	12857
#	35857
#	56695
#	75150
#	92042
#	112380
#	130782
#	144180
#	160020
#	175685
#	192442
#	212007
#	231452
#	249320
#	268410
#	285870
#
# Disc length: 4107 seconds
#
# Revision: 5
# Processed by: cddbd v1.5.2PL0 Copyright (c) Steve Scherf et al.
# Submitted via: CDex 1.51
#
DISCID=ea100911
DTITLE=LeAnn Rimes - Sittin' On Top Of The World
DYEAR=1999
DGENRE=Country
TTITLE0=Blue
TTITLE1=How Do I Live
TTITLE2=Commitment
TTITLE3=Looking Through Your Eyes
TTITLE4=Undeniable
TTITLE5=Feels Like Home
TTITLE6=Surrender
TTITLE7=These Arms Of Mine
TTITLE8=Nothin' New Under The Moon
TTITLE9=When Am I Gonna Get Over You
TTITLE10=Rock Me
TTITLE11=More Than Anyone Deserves
TTITLE12=Insensitive
TTITLE13=All The Lovin' And Hurtin'
TTITLE14=Sittin' On Top Of The World
TTITLE15=The Heart Never Forgets
TTITLE16=Purple Rain
EXTD=Location:  - UPC: 0639842969024 - Catalogue number: 3984 29690 2 - Label: Curb Records - ASIN: B00000898F - Release Date: 1998 05 05 - Discogs: a77856,m154290 - MUSICBRAINZ_ALBUMID: 74cb522d-22f7-4661-ab84-768572edd6b5 - AMG: p182450,r348593 - YEAR: 1999
EXTT0=
EXTT1=
EXTT2=
EXTT3=From 'The Magic Sword - Quest for Camelot' Movie
EXTT4=
EXTT5=
EXTT6=
EXTT7=
EXTT8=
EXTT9=
EXTT10=
EXTT11=
EXTT12=
EXTT13=
EXTT14=
EXTT15=
EXTT16=
PLAYORDER=
